<svg width="91" height="208" viewBox="0 0 91 208" fill="none" xmlns="http://www.w3.org/2000/svg">
<g clip-path="url(#clip0_302_929)">
<path d="M60.3658 193.168C60.6848 201.462 54.6239 207.523 46.33 207.204C38.355 207.523 31.0181 202.1 31.0181 193.168C30.6991 186.151 36.4411 178.814 40.588 178.814H50.477C54.6239 178.814 60.3658 184.237 60.3658 193.168Z" fill="white"/>
<path d="M1.00569 116.036C0.795785 108.061 6.4287 102 12.1707 102H77.2459C82.9879 102 91.0584 108.061 90.0057 118.588C89.0487 128.158 71.185 145.703 45.6653 145.703C17.9126 145.703 1.32476 128.158 1.00569 116.036Z" fill="#767676"/>
<path d="M40.8806 140.28C26.8447 140.28 9.29995 127.839 8.98096 116.993C8.34293 111.251 13.7659 107.104 16.3179 107.423H74.0562C79.4791 107.423 82.0311 114.441 81.7121 116.993C82.0311 128.796 60.9773 140.28 51.0884 140.28H40.8806Z" fill="#4B4A4F"/>
<path d="M40.8802 134.857C30.9913 134.857 13.7655 123.692 13.4465 117.312C13.1275 116.036 13.7655 113.165 15.6795 113.165L74.0558 112.846C76.9268 112.846 77.5648 115.079 77.5648 117.312C77.8838 121.778 61.615 134.857 51.0881 134.857H40.8802Z" fill="white"/>
<path d="M41.1992 134.857V183.982C41.1992 186.215 43.1132 187.81 45.6652 187.81C49.267 187.81 50.4501 186.215 50.4501 183.982L50.7691 134.857C50.7691 132.305 48.8998 129.753 45.9842 129.753C43.4322 129.753 41.1992 132.624 41.1992 134.857Z" fill="#A8A8A8"/>
<path d="M43.0054 152.814V134.472C43.0054 133.143 43.672 131.814 46.0054 131.814C47.8501 131.814 49.0054 132.611 49.0054 134.472V152.814H43.0054Z" fill="#CBCBCB"/>
<path d="M19 115.366V-10H72.5914L72.2724 115.366C72.2724 116.961 70.6774 118.237 68.4444 118.237L22.19 118.556C20.914 118.875 19 116.961 19 115.366Z" fill="#BAA36B"/>
</g>
<defs>
<clipPath id="clip0_302_929">
<rect width="91" height="208" fill="white"/>
</clipPath>
</defs>
</svg>
