<?xml version="1.0" standalone="no"?>
<!DOCTYPE svg PUBLIC "-//W3C//DTD SVG 20010904//EN"
 "http://www.w3.org/TR/2001/REC-SVG-20010904/DTD/svg10.dtd">
<svg version="1.0" xmlns="http://www.w3.org/2000/svg"
 width="512.000000pt" height="512.000000pt" viewBox="0 0 512.000000 512.000000"
 preserveAspectRatio="xMidYMid meet">

<g transform="translate(0.000000,512.000000) scale(0.100000,-0.100000)"
fill="#000000" stroke="none">
<path d="M1542 4790 c-38 -16 -1186 -1005 -1202 -1035 -13 -24 -15 -163 -15
-1041 0 -1007 0 -1013 21 -1040 11 -15 33 -37 48 -48 27 -21 34 -21 886 -21
852 0 859 0 886 21 15 11 37 33 48 48 21 27 21 35 24 1024 2 681 0 1009 -8
1034 -13 45 -68 95 -114 104 l-35 6 -3 188 c-3 172 -5 191 -24 216 -53 72
-121 89 -218 55 -33 -12 -63 -21 -67 -21 -4 0 -9 94 -11 209 -3 229 -5 235
-70 284 -30 23 -111 32 -146 17z m-109 -620 c-10 -10 -203 -73 -208 -69 -1 2
45 45 104 96 l106 92 3 -56 c2 -31 -1 -59 -5 -63z m327 -280 l0 -50 -142 1
-143 1 140 48 c77 27 141 49 143 49 1 1 2 -21 2 -49z m160 -1170 l0 -800 -640
0 -640 0 0 800 0 800 640 0 640 0 0 -800z"/>
<path d="M895 3346 c-41 -18 -83 -69 -90 -109 -3 -18 -5 -154 -3 -304 3 -256
4 -273 24 -299 11 -15 33 -37 48 -48 27 -20 39 -21 406 -21 367 0 379 1 406
21 15 11 37 33 48 48 20 26 21 40 21 326 0 286 -1 300 -21 326 -11 15 -33 37
-48 48 -26 20 -41 21 -394 23 -290 2 -373 0 -397 -11z m545 -386 l0 -80 -160
0 -160 0 0 80 0 80 160 0 160 0 0 -80z"/>
<path d="M2335 4466 c-118 -51 -124 -224 -11 -289 16 -9 260 -13 1038 -17
1007 -5 1017 -5 1044 -26 15 -11 37 -33 48 -48 20 -27 21 -41 24 -457 l3 -429
-990 -2 c-982 -3 -990 -3 -1017 -24 -53 -39 -69 -71 -69 -134 0 -63 16 -95 69
-134 27 -21 35 -21 1017 -24 l989 -2 0 -480 0 -480 -989 -2 c-982 -3 -990 -3
-1017 -24 -53 -39 -69 -71 -69 -134 0 -63 16 -95 69 -134 27 -21 35 -21 1017
-24 l989 -2 0 -415 c0 -462 0 -461 -66 -511 l-37 -29 -1178 0 c-1174 0 -1178
0 -1205 21 -15 11 -37 33 -48 48 -20 26 -21 44 -26 326 -5 282 -6 300 -26 326
-39 53 -71 69 -134 69 -63 0 -95 -16 -134 -69 -20 -26 -21 -43 -24 -318 -2
-187 1 -310 8 -344 37 -176 179 -323 357 -369 87 -23 2380 -22 2468 0 172 45
305 179 350 352 13 50 15 278 15 1713 0 1455 -2 1663 -15 1715 -45 172 -179
305 -352 350 -81 21 -2050 22 -2098 1z"/>
<path d="M3135 3986 c-41 -18 -83 -69 -90 -109 -4 -18 -5 -118 -3 -224 3 -210
5 -218 72 -267 39 -29 133 -29 172 0 68 51 69 53 69 294 0 205 -1 220 -21 246
-11 15 -32 37 -46 47 -33 25 -113 32 -153 13z"/>
<path d="M3615 3986 c-41 -18 -83 -69 -90 -109 -4 -18 -5 -118 -3 -224 3 -210
5 -218 72 -267 39 -29 133 -29 172 0 68 51 69 53 69 294 0 205 -1 220 -21 246
-11 15 -32 37 -46 47 -33 25 -113 32 -153 13z"/>
<path d="M4095 3986 c-41 -18 -83 -69 -90 -109 -4 -18 -5 -118 -3 -224 3 -210
5 -218 72 -267 39 -29 133 -29 172 0 68 51 69 53 69 294 0 205 -1 220 -21 246
-11 15 -32 37 -46 47 -33 25 -113 32 -153 13z"/>
<path d="M3135 2706 c-41 -18 -83 -69 -90 -109 -4 -18 -5 -118 -3 -224 3 -210
5 -218 72 -267 39 -29 133 -29 172 0 68 51 69 53 69 294 0 205 -1 220 -21 246
-11 15 -32 37 -46 47 -33 25 -113 32 -153 13z"/>
<path d="M3615 2706 c-41 -18 -83 -69 -90 -109 -4 -18 -5 -118 -3 -224 3 -210
5 -218 72 -267 39 -29 133 -29 172 0 68 51 69 53 69 294 0 205 -1 220 -21 246
-11 15 -32 37 -46 47 -33 25 -113 32 -153 13z"/>
<path d="M4095 2706 c-41 -18 -83 -69 -90 -109 -4 -18 -5 -118 -3 -224 3 -210
5 -218 72 -267 39 -29 133 -29 172 0 68 51 69 53 69 294 0 205 -1 220 -21 246
-11 15 -32 37 -46 47 -33 25 -113 32 -153 13z"/>
<path d="M3135 1426 c-41 -18 -83 -69 -90 -109 -4 -18 -5 -118 -3 -224 3 -210
5 -218 72 -267 39 -29 133 -29 172 0 68 51 69 53 69 294 0 205 -1 220 -21 246
-11 15 -32 37 -46 47 -33 25 -113 32 -153 13z"/>
<path d="M3615 1426 c-41 -18 -83 -69 -90 -109 -4 -18 -5 -118 -3 -224 3 -210
5 -218 72 -267 39 -29 133 -29 172 0 68 51 69 53 69 294 0 205 -1 220 -21 246
-11 15 -32 37 -46 47 -33 25 -113 32 -153 13z"/>
<path d="M4095 1426 c-41 -18 -83 -69 -90 -109 -4 -18 -5 -118 -3 -224 3 -210
5 -218 72 -267 39 -29 133 -29 172 0 68 51 69 53 69 294 0 205 -1 220 -21 246
-11 15 -32 37 -46 47 -33 25 -113 32 -153 13z"/>
</g>
</svg>
