<?xml version="1.0" encoding="utf-8"?>
<!-- Generator: Adobe Illustrator 28.1.0, SVG Export Plug-In . SVG Version: 6.00 Build 0)  -->
<svg version="1.1" id="Capa_1" xmlns="http://www.w3.org/2000/svg" xmlns:xlink="http://www.w3.org/1999/xlink" x="0px" y="0px"
	 viewBox="0 0 255.14 297.35" style="enable-background:new 0 0 255.14 297.35;" xml:space="preserve">
<style type="text/css">
	.st0{fill-rule:evenodd;clip-rule:evenodd;fill:#8b97a5;}
</style>
<g>
	<path id="XMLID_00000101099722991335579000000017057135479054860676_" class="st0" d="M200,191.43c-5.82-1.29-11.66-0.2-16.52,2.62
		c7.29,1.32,14.34,3.33,21.36,5.66c-7.38-0.89-14.6-2.02-21.76-4c3.15,4.58,8.01,8.08,13.83,9.37c6.27,1.38,12.56,0.07,17.51-3.19
		C211.33,196.78,206.29,192.91,200,191.43"/>
	<path id="XMLID_00000010269761386325827570000004442834782835936680_" class="st0" d="M217.87,182.15
		c-5.12-0.61-10.06,0.87-13.88,3.73c6.34,0.44,12.59,1.56,18.83,2.87c-6.34-0.1-12.76-0.45-19-1.48c3.13,3.73,7.54,6.25,12.66,6.86
		c5.57,0.6,10.85-1.13,14.84-4.35C228.11,185.62,223.43,182.76,217.87,182.15"/>
	<path id="XMLID_00000093892849532331786640000016231747907869442713_" class="st0" d="M179.35,124.35
		c0.9-4.52-0.25-9.05-2.67-12.61c-3.71,2.4-6.39,6.17-7.29,10.7c-0.85,4.25,0.04,8.57,2.23,11.94c0.76-5.28,2.09-10.44,3.62-15.62
		c-0.48,5.34-1.19,10.69-2.38,15.89C176.07,132.21,178.56,128.68,179.35,124.35"/>
	<path id="XMLID_00000084512738513571267340000017654564362033120159_" class="st0" d="M176.53,152.55
		c-4.79,1.96-8.51,5.69-10.43,10.09c5.77-2.7,11.78-4.79,17.96-6.66c-5.64,3.03-11.45,5.84-17.4,8.09
		c4.52,1.59,9.68,1.75,14.52-0.33c5.1-2.08,8.87-6.2,10.82-10.97C187.16,150.67,181.64,150.46,176.53,152.55"/>
	<path id="XMLID_00000108277790703128125880000007311560103526721703_" class="st0" d="M161.13,170.24
		c-3.83,2.37-6.51,6.13-7.51,10.19c4.57-3.18,9.42-5.82,14.49-8.33c-4.42,3.41-9.02,6.68-13.81,9.47c4.13,0.71,8.59,0.11,12.45-2.38
		c4.09-2.52,6.73-6.6,7.73-10.98C170,167.08,165.22,167.71,161.13,170.24"/>
	<path id="XMLID_00000156569291616299325160000012787183237457988513_" class="st0" d="M220.71,179.55c4.4-1.93,7.59-5.59,9.2-9.8
		c-4.27-1.73-9.09-1.79-13.5,0.14c-4.13,1.81-7.29,5.14-8.88,9.02c4.97-2.49,10.17-4.42,15.52-6.18c-4.87,2.75-9.87,5.34-15.01,7.41
		C212.02,181.42,216.54,181.45,220.71,179.55"/>
	<path id="XMLID_00000148650291887926740670000015514388990674977180_" class="st0" d="M190.54,127.75
		c4.22-3.27,8.75-6.07,13.46-8.73c-4.05,3.5-8.29,6.87-12.73,9.8c4,0.46,8.23-0.35,11.8-2.93c3.79-2.64,6.11-6.67,6.83-10.94
		c-4.34-0.84-8.9,0.02-12.68,2.65C193.67,120.08,191.31,123.82,190.54,127.75"/>
	<path id="XMLID_00000074417605946149529420000013483949253985256840_" class="st0" d="M205.39,133.04
		c-5.15-1.56-10.78-1.1-15.7,1.63c-4.62,2.57-7.93,6.8-9.36,11.48c5.52-3.44,11.35-6.27,17.4-8.91c-5.35,3.75-10.9,7.3-16.66,10.28
		c4.79,1.07,10.04,0.61,14.7-2.07C200.67,142.72,203.99,138.1,205.39,133.04"/>
	<path id="XMLID_00000080204692531674299660000004567195120814954653_" class="st0" d="M207.18,171.92c3.15-4.66,4.03-10.26,3-15.42
		c-5.3,0.92-10.12,3.88-13.28,8.53c-2.96,4.37-4.02,9.65-3.18,14.48c3.37-5.57,7.31-10.73,11.52-15.81
		c-3.1,5.76-6.45,11.43-10.24,16.7C199.75,179.19,204.24,176.41,207.18,171.92"/>
	<path id="XMLID_00000036234676342610260080000008853615993795478914_" class="st0" d="M187.76,178.08
		c2.55-3.76,3.25-8.3,2.42-12.48c-4.29,0.74-8.18,3.15-10.74,6.9c-2.4,3.54-3.26,7.8-2.57,11.7c2.72-4.5,5.92-8.68,9.31-12.79
		c-2.49,4.66-5.21,9.25-8.28,13.51C181.76,183.96,185.38,181.71,187.76,178.08"/>
	<path id="XMLID_00000049196329925843981900000005331603941947741071_" class="st0" d="M168.54,190.69c2.54-3.08,3.51-7,3.12-10.71
		c-3.8,0.32-7.4,2.11-9.94,5.19c-2.38,2.91-3.47,6.57-3.17,10.03c2.73-3.72,5.85-7.11,9.15-10.44c-2.54,3.87-5.28,7.68-8.3,11.16
		C162.83,195.35,166.18,193.68,168.54,190.69"/>
	<path id="XMLID_00000038381220873712936750000011566995843580819878_" class="st0" d="M154.1,197.27
		c2.34-3.23,3.08-7.19,2.46-10.87c-3.77,0.54-7.25,2.55-9.6,5.78c-2.19,3.04-3.05,6.75-2.55,10.19c2.5-3.87,5.39-7.44,8.48-10.97
		c-2.3,4.01-4.8,7.98-7.6,11.63C148.7,202.28,151.93,200.41,154.1,197.27"/>
	<path id="XMLID_00000031899791000503824700000011620983095754657159_" class="st0" d="M148.93,156.22
		c2.05-3.62,2.36-7.81,1.31-11.55c-3.85,1-7.23,3.46-9.29,7.07c-1.93,3.4-2.4,7.35-1.49,10.84c2.17-4.29,4.76-8.32,7.56-12.32
		c-1.95,4.43-4.07,8.81-6.56,12.91C143.89,162.01,147.03,159.7,148.93,156.22"/>
	<path id="XMLID_00000162346917181660111810000003794221854830089900_" class="st0" d="M130.37,111.52
		c-4.27,1.11-8.01,3.84-10.3,7.85c-2.13,3.77-2.64,8.15-1.65,12.04c2.4-4.77,5.28-9.26,8.39-13.68c-2.15,4.91-4.52,9.77-7.28,14.33
		c3.8-1.31,7.29-3.86,9.39-7.73C131.21,120.33,131.56,115.67,130.37,111.52"/>
	<path id="XMLID_00000036960360380119296460000016118318429519321788_" class="st0" d="M143.62,108.59
		c0.8-4.16-0.29-8.31-2.55-11.58c-3.39,2.24-5.84,5.74-6.64,9.9c-0.73,3.92,0.11,7.88,2.15,10.96c0.66-4.86,1.84-9.61,3.22-14.39
		c-0.41,4.92-1.02,9.86-2.07,14.64C140.66,115.85,142.94,112.59,143.62,108.59"/>
	<path id="XMLID_00000046309749794313477340000004469624952548017026_" class="st0" d="M130.99,139.69
		c0.37-4.1-1.09-8.01-3.58-10.93c-3.06,2.48-5.08,6.09-5.44,10.19c-0.33,3.84,0.88,7.6,3.13,10.38c0.17-4.76,0.87-9.46,1.73-14.2
		c0.08,4.79-0.04,9.61-0.59,14.33C128.84,146.98,130.71,143.6,130.99,139.69"/>
	<path id="XMLID_00000074441825767880336090000009649139215337363128_" class="st0" d="M79.02,136.05
		c-5.58,1.31-10.12,4.9-12.91,9.47c4.61,2.97,10.26,4.08,15.85,2.78c5.22-1.23,9.67-4.44,12.35-8.63
		c-6.36,1.83-12.87,2.97-19.53,3.87c6.29-2.17,12.73-4.11,19.2-5.44C89.6,135.74,84.32,134.73,79.02,136.05"/>
	<path id="XMLID_00000111888167774817105650000016139152280500443069_" class="st0" d="M222.58,146.37
		c5.01-5.63,7.22-12.74,6.62-19.66c-6.93,0.3-13.73,3.2-18.76,8.83c-4.62,5.21-6.82,11.74-6.73,18.25
		c5.42-6.62,11.03-12.64,17.45-18.45c-5.1,7.02-9.92,13.64-15.94,19.76C211.65,154.49,217.97,151.59,222.58,146.37"/>
	<path id="XMLID_00000062193041355291543870000002910795787860157092_" class="st0" d="M88.54,161.6
		c0.85,5.88,3.92,11.43,9.15,15.23c4.84,3.49,10.59,4.81,16.14,4.15c-6.12-4.04-11.73-8.31-17.24-13.28
		c6.44,3.76,12.49,7.29,18.22,11.9c-1.07-5.43-4.09-10.56-8.94-14.05C100.66,161.76,94.39,160.49,88.54,161.6"/>
	<path id="XMLID_00000119811036669231356030000008308967459736910489_" class="st0" d="M223.43,99.05
		c-4.99,2.81-8.77,7.08-11.02,11.68c6-3.7,12.22-6.92,18.52-9.85c-5.84,3.95-11.78,7.84-18.01,11.07c4.57,0.81,9.79-0.2,14.77-3.01
		c5.22-3.08,9.23-7.72,11.35-12.81C234.34,95.14,228.65,95.96,223.43,99.05"/>
	<path id="XMLID_00000152957082279761969750000007626610144062760099_" class="st0" d="M229.53,89.73
		c3.76-4.76,5.85-10.52,5.99-16.03c-4.74,0.77-9.75,3.58-13.52,8.33c-3.63,4.41-5.62,9.75-6.07,14.86
		c4.27-5.6,8.91-10.85,13.72-15.85c-4.02,5.79-8.16,11.55-12.8,16.8C221.38,96.97,225.9,94.14,229.53,89.73"/>
	<path id="XMLID_00000182505079529296063150000016162072784859462035_" class="st0" d="M233.96,130.22
		c-2.72,3.41-3.83,7.62-3.42,11.63c3.11-4.41,6.62-8.42,10.33-12.33c-2.81,4.61-5.91,9.02-9.33,13.13c4.02-0.7,7.72-2.8,10.43-6.22
		c2.92-3.72,3.92-8.23,3.31-12.54C240.98,124.4,236.76,126.5,233.96,130.22"/>
	<path id="XMLID_00000042004090444143858310000001839484468065061041_" class="st0" d="M230,148.53c-4.33,0.51-8.53,2.61-11.34,6.31
		c-2.71,3.41-3.8,7.63-3.4,11.64c3.1-4.42,6.61-8.43,10.33-12.33c-2.81,4.61-5.92,9.02-9.34,13.13c4.01-0.7,7.74-2.8,10.43-6.22
		C229.6,157.36,230.59,152.84,230,148.53"/>
	<path id="XMLID_00000048466423502821103550000008846633897780202639_" class="st0" d="M242.21,154.84
		c0.91-4.63-0.24-9.1-2.71-12.68c-3.63,2.39-6.44,6.17-7.25,10.76c-0.89,4.27,0.02,8.53,2.2,11.91c0.78-5.34,2.1-10.5,3.65-15.66
		c-0.42,5.38-1.2,10.72-2.4,15.93C238.96,162.66,241.33,159.11,242.21,154.84"/>
	<path id="XMLID_00000012474680611850096070000005842770870341427076_" class="st0" d="M251.79,134.65
		c-2.12,2.97-4.41,5.79-7.01,8.41c2.75-0.19,5.5-1.46,7.48-3.71c2.12-2.42,3.04-5.43,2.86-8.41c-2.98,0.18-5.94,1.43-8.1,3.76
		c-1.89,2.22-2.88,5.04-2.82,7.74C246.49,139.61,249.11,137.09,251.79,134.65"/>
	<path id="XMLID_00000124140145544221824190000008330935711474941842_" class="st0" d="M245.81,151.34
		c-1.9,2.21-2.88,5.02-2.83,7.73c2.29-2.82,4.93-5.36,7.61-7.8c-2.13,2.97-4.43,5.79-7.02,8.41c2.76-0.18,5.49-1.44,7.49-3.71
		c2.12-2.42,3.04-5.42,2.86-8.4C250.93,147.74,247.97,148.99,245.81,151.34"/>
	<path id="XMLID_00000036216161369343170310000008329917355207939751_" class="st0" d="M235.84,167.01c-3.6,2.2-6.23,5.63-7.37,9.37
		c4.42-2.85,9.18-5.14,13.96-7.29c-4.26,3.12-8.67,5.96-13.43,8.41c3.87,0.99,8.21,0.48,11.95-1.74c4.02-2.38,6.63-6.09,7.75-10.26
		C244.5,164.39,239.87,164.78,235.84,167.01"/>
	<path id="XMLID_00000075849836298058814300000003738384435881864334_" class="st0" d="M106.69,216.64
		c-4.71-3-10.53-4.31-16.35-3.31c-6.33,1.11-11.64,4.81-14.94,9.83c4.8,3.41,11.03,5.02,17.35,3.91c5.92-1.1,10.94-4.31,14.25-8.83
		c-7.21,1.71-14.54,2.52-21.87,3.11C92.25,219.35,99.38,217.65,106.69,216.64"/>
	<path id="XMLID_00000121991494647056043220000001713134530820756404_" class="st0" d="M155.96,215.82
		c-4.18,2.1-7.25,5.58-8.77,9.68c5.05-2.84,10.35-5.01,15.72-7.03c-4.91,3.04-9.87,5.85-15.14,8.17c4.18,1.24,8.8,0.96,12.95-1.04
		c4.5-2.18,7.68-6.1,9.09-10.57C165.47,213.5,160.46,213.63,155.96,215.82"/>
	<path id="XMLID_00000181067294752496685740000016168042610561287608_" class="st0" d="M85.76,210.73c3.82-1.9,6.63-5.3,7.94-9.12
		c-4.62,2.71-9.54,4.81-14.55,6.82c4.51-2.91,9.13-5.62,14.05-7.93c-3.92-1.11-8.23-0.81-12.14,1.2c-4.12,2.2-7.03,5.81-8.23,10.03
		C76.93,213.14,81.55,212.93,85.76,210.73"/>
	<path id="XMLID_00000076594948540398152610000001001514472050031804_" class="st0" d="M80.85,195.61
		c-7.15,1.98-14.38,3.11-21.76,3.99c7.03-2.32,14.07-4.33,21.38-5.65c-4.87-2.82-10.71-3.91-16.53-2.63
		c-6.29,1.48-11.34,5.35-14.42,10.46c4.96,3.26,11.25,4.57,17.51,3.19C72.84,203.69,77.7,200.18,80.85,195.61"/>
	<path id="XMLID_00000095306403382606682650000010527225606525142664_" class="st0" d="M60.11,187.17c-6.24,1.04-12.67,1.39-19,1.47
		c6.24-1.29,12.49-2.43,18.83-2.86c-3.83-2.87-8.76-4.34-13.88-3.73c-5.56,0.61-10.26,3.47-13.46,7.64
		c3.98,3.21,9.29,4.95,14.84,4.34C52.56,193.42,56.98,190.9,60.11,187.17"/>
	<path id="XMLID_00000147908497330611501540000006231285815779688841_" class="st0" d="M43.22,179.45c4.18,1.9,8.68,1.87,12.67,0.58
		c-5.15-2.08-10.16-4.66-15.01-7.43c5.36,1.77,10.55,3.71,15.53,6.2c-1.59-3.87-4.77-7.2-8.89-9.02c-4.4-1.92-9.23-1.86-13.49-0.13
		C35.63,173.85,38.81,177.51,43.22,179.45"/>
	<path id="XMLID_00000169521102316604883820000002647057971510907813_" class="st0" d="M67.02,164.92
		c-3.16-4.65-7.99-7.61-13.29-8.53c-1.03,5.16-0.15,10.77,3.01,15.43c2.94,4.49,7.43,7.26,12.18,8.47
		c-3.79-5.27-7.15-10.95-10.24-16.69c4.2,5.07,8.14,10.24,11.51,15.8C71.04,174.57,69.99,169.29,67.02,164.92"/>
	<path id="XMLID_00000157308250393299093490000004739534417832329406_" class="st0" d="M84.48,172.4c-2.55-3.77-6.45-6.15-10.74-6.9
		c-0.83,4.18-0.12,8.71,2.43,12.48c2.38,3.63,6.01,5.88,9.85,6.86c-3.07-4.26-5.79-8.86-8.29-13.51c3.4,4.11,6.59,8.29,9.31,12.78
		C87.74,180.2,86.87,175.94,84.48,172.4"/>
	<path id="XMLID_00000005268062015818793320000004861483170257970599_" class="st0" d="M102.2,185.05
		c-2.52-3.09-6.13-4.87-9.93-5.19c-0.4,3.72,0.58,7.63,3.1,10.72c2.38,2.98,5.73,4.66,9.16,5.22c-3.02-3.49-5.75-7.28-8.3-11.16
		c3.3,3.32,6.41,6.72,9.15,10.44C105.66,191.62,104.57,187.96,102.2,185.05"/>
	<path id="XMLID_00000108270392045491426380000002919978364782753180_" class="st0" d="M116.96,192.07
		c-2.34-3.22-5.81-5.22-9.59-5.77c-0.62,3.67,0.11,7.64,2.44,10.88c2.18,3.12,5.41,5,8.81,5.74c-2.79-3.65-5.29-7.61-7.61-11.62
		c3.09,3.52,6,7.09,8.5,10.96C120.01,198.83,119.15,195.1,116.96,192.07"/>
	<path id="XMLID_00000142897122833384264830000014053030957356359552_" class="st0" d="M45.26,154.74
		c-2.8-3.71-7.03-5.81-11.33-6.31c-0.61,4.31,0.4,8.82,3.31,12.54c2.71,3.41,6.42,5.52,10.44,6.22c-3.42-4.12-6.53-8.53-9.33-13.15
		c3.72,3.93,7.23,7.94,10.33,12.35C49.07,162.36,47.96,158.14,45.26,154.74"/>
	<path id="XMLID_00000089534650902400132780000007637035475896962712_" class="st0" d="M85.57,162.82
		c-5.06-1.72-10.02-3.85-14.83-6.31c5.22,1.39,10.31,2.98,15.27,5.1c-1.75-3.63-4.91-6.64-9-8.12c-4.33-1.7-9.02-1.29-12.97,0.54
		c1.75,3.98,4.97,7.3,9.39,8.95C77.52,164.46,81.79,164.31,85.57,162.82"/>
	<path id="XMLID_00000183927502784582786140000011267437705703216007_" class="st0" d="M21.17,175.83
		c5.06,1.39,10.12,2.92,14.92,5.05c-1.7-3.52-4.82-6.5-8.72-8.11c-4.33-1.58-8.97-1.25-12.92,0.48c1.74,3.96,4.88,7.22,9.22,8.95
		c4.05,1.61,8.41,1.45,12.08-0.13C30.67,180.4,25.86,178.27,21.17,175.83"/>
	<path id="XMLID_00000152245443127469585640000000303362461285748105_" class="st0" d="M223.51,73.76c2.75,0.24,5.64-0.6,7.95-2.53
		c2.48-2.08,3.83-4.9,4.11-7.87c-2.98-0.28-6.08,0.51-8.58,2.49c-2.21,1.91-3.62,4.54-3.97,7.22c2.7-2.44,5.67-4.55,8.68-6.56
		C229.17,69.12,226.47,71.56,223.51,73.76"/>
	<path id="XMLID_00000093897387470839947260000016952416182417131695_" class="st0" d="M104.56,80.21
		c0.19-7.43-2.72-14.35-7.53-19.36c-5.22,4.71-8.52,11.43-8.73,18.86c-0.2,7.02,2.31,13.44,6.62,18.36
		c-0.2-8.62,0.3-16.86,1.41-25.38c0.59,8.63,1.2,16.86,0.51,25.38C101.45,93.45,104.36,87.23,104.56,80.21"/>
	<path id="XMLID_00000034070524646222912190000001312472845857121198_" class="st0" d="M73.46,89.46
		c-5.56-1.88-11.45-1.29-16.36,1.18c2.34,5.03,6.64,9.09,12.2,10.97c5.24,1.78,10.66,1.39,15.38-0.72
		c-6.55-1.86-12.64-4.15-18.82-6.97c6.65,1.55,13,3.03,19.26,5.53C82.72,94.89,78.71,91.25,73.46,89.46"/>
	<path id="XMLID_00000000197217595399896780000015924935382467915953_" class="st0" d="M58.56,96.63c-4-2.76-8.83-3.64-13.29-2.8
		c0.71,4.54,3.21,8.75,7.2,11.51c3.78,2.62,8.18,3.55,12.43,2.93c-4.8-2.97-9.13-6.18-13.4-9.83c4.93,2.76,9.66,5.36,14.07,8.8
		C64.7,103.06,62.33,99.24,58.56,96.63"/>
	<path id="XMLID_00000016066271793235858000000011913850613274151613_" class="st0" d="M111.88,103.94c0-4.78-1.94-9.11-5.07-12.16
		c-3.21,3.05-5.23,7.31-5.3,12.08c0,4.4,1.71,8.5,4.47,11.49c-0.23-5.45,0.38-11.86,0.97-17.31c0.45,5.45,0.6,11.93,0.31,17.38
		C110.1,112.43,111.8,108.41,111.88,103.94"/>
	<path id="XMLID_00000010292092778370772120000006278996109839794856_" class="st0" d="M108.66,149.71
		c-2.42-4.11-6.3-6.84-10.55-7.88c-1.2,4.26-0.77,8.95,1.59,13.09c2.25,3.79,5.81,6.45,9.7,7.61c-2.97-4.57-5.72-10.39-7.98-15.39
		c3.16,4.47,6.6,9.97,9.11,14.81C111.45,157.93,110.87,153.6,108.66,149.71"/>
	<path id="XMLID_00000021806339042458269850000001045011943884156841_" class="st0" d="M113.31,81.01
		c-0.66-3.28-2.58-5.99-5.16-7.64c-1.78,2.53-2.58,5.74-1.97,9.02c0.6,3.03,2.33,5.61,4.65,7.28c-0.9-3.72-1.38-8.2-1.72-12.02
		c1.06,3.68,2.06,8.12,2.61,11.89C113.25,87.11,113.88,84.1,113.31,81.01"/>
	<path id="XMLID_00000156578547564315780630000000523173451234629508_" class="st0" d="M19.98,105.04
		c-4.59,0.4-10.04,0.13-14.68-0.16c4.59-0.58,10.08-0.96,14.7-0.91c-2.63-2.28-6.11-3.58-9.9-3.48c-4.04,0.18-7.62,1.99-10.1,4.76
		c2.72,2.6,6.38,4.14,10.43,4.02C14.16,109.1,17.56,107.49,19.98,105.04"/>
	<path id="XMLID_00000093154769544139846350000012125746078735217819_" class="st0" d="M11.69,97.26c3.4,2.49,7.54,3.49,11.41,3.04
		c-4.33-2.9-8.95-6.99-12.83-10.54c4.46,2.74,9.57,6.29,13.61,9.6c-0.7-3.87-2.85-7.47-6.26-10.06c-3.7-2.71-8.14-3.66-12.28-2.97
		C5.89,90.53,8.04,94.5,11.69,97.26"/>
	<path id="XMLID_00000152266558052145316190000005514013265463159689_" class="st0" d="M86.18,108.33
		c-4.35-1.83-9.02-1.74-13.01-0.07c1.54,4.09,4.63,7.57,8.95,9.47c4,1.69,8.39,1.71,12.16,0.35c-5.04-1.9-10.63-4.91-15.37-7.56
		c5.13,1.7,11.09,4.07,15.92,6.43C93.23,113.24,90.22,110.12,86.18,108.33"/>
	<path id="XMLID_00000055676958064808636160000012724004253914896795_" class="st0" d="M136.52,125c0.24-2.48-0.56-4.83-2.03-6.57
		c-1.81,1.42-3.07,3.54-3.35,6.01c-0.22,2.29,0.47,4.5,1.75,6.2c0.16-2.84,0.78-6.14,1.36-8.95c-0.04,2.86-0.29,6.24-0.71,9.04
		C135.16,129.33,136.25,127.33,136.52,125"/>
	<path id="XMLID_00000150094929324266922690000016315831496389670789_" class="st0" d="M167.48,138.61
		c0.62-3.19-0.11-6.32-1.81-8.76c-2.53,1.62-4.42,4.2-5.08,7.37c-0.58,2.93,0.04,5.89,1.49,8.23c0.55-3.65,1.78-7.85,2.89-11.41
		c-0.4,3.69-1.15,8.04-2.05,11.62C165.19,144.04,166.86,141.57,167.48,138.61"/>
	<path id="XMLID_00000107562870055747242800000000202753825625421478_" class="st0" d="M157.53,150.01
		c0.39-2.04-0.08-4.06-1.17-5.64c-1.63,1.05-2.85,2.7-3.27,4.74c-0.38,1.89,0.02,3.8,0.97,5.31c0.35-2.37,1.13-5.07,1.85-7.36
		c-0.26,2.38-0.75,5.17-1.33,7.49C156.05,153.52,157.12,151.93,157.53,150.01"/>
	<path id="XMLID_00000093139910393212782850000005905519849009248159_" class="st0" d="M146.99,77.93c0.64,6.84,0.94,15,0.66,21.85
		c3.51-3.8,5.6-8.89,5.63-14.52c-0.07-6.01-2.58-11.41-6.58-15.2c-3.97,3.89-6.44,9.27-6.45,15.27c0.06,5.54,2.29,10.68,5.8,14.38
		C145.69,92.86,146.33,84.79,146.99,77.93"/>
	<path id="XMLID_00000181076754085974056330000016891058181746897064_" class="st0" d="M120.87,67.43
		c-2.18,5.9-1.9,12.24,0.33,17.61c2.39-7.41,6.36-15.72,9.86-22.73c-2.1,7.53-5.12,16.31-8.19,23.46
		c5.27-2.61,9.56-7.16,11.87-13.12c2.36-6.39,1.9-13.15-0.78-18.8C128.14,56.37,123.34,61.06,120.87,67.43"/>
	<path id="XMLID_00000020375242250699319140000007645638638648988040_" class="st0" d="M161.15,45.98
		c-0.55,4.44,0.68,8.78,3.1,12.14c0.45-5.52,1.84-11.92,3.12-17.33c-0.23,5.55-0.88,12.12-1.84,17.57
		c3.22-2.65,5.45-6.51,6.07-11.02c0.6-4.83-0.83-9.42-3.61-12.9C164.37,37.13,161.82,41.17,161.15,45.98"/>
	<path id="XMLID_00000164512082417210075990000007940332544326736544_" class="st0" d="M110.99,57.37
		c-1.84-3.99-5.12-6.86-8.92-8.21c-1.5,3.79-1.55,8.11,0.24,12.13c1.69,3.68,4.71,6.44,8.17,7.88c-2.29-4.47-4.26-10.06-5.86-14.83
		c2.47,4.37,5.1,9.74,6.95,14.4C112.78,65.16,112.66,61.13,110.99,57.37"/>
	<path id="XMLID_00000041981329510998933490000017969945095686493834_" class="st0" d="M117.65,43.34
		c-2.63,5.54-2.83,11.58-1.13,16.99c2.9-6.95,6.92-14.91,10.73-21.38c-2.49,7.1-5.66,15.49-9.17,22.12
		c5.28-2.17,9.87-6.16,12.38-11.69c2.84-5.89,2.83-12.46,0.7-18.15C125.39,33.19,120.42,37.39,117.65,43.34"/>
	<path id="XMLID_00000170988864978284082670000014450611172363767725_" class="st0" d="M110.1,49.37
		c-1.38-7.4-2.35-16.26-2.71-23.76c1.81,7.3,3.73,16.05,4.42,23.52c3.23-4.69,4.89-10.55,3.97-16.55
		c-0.85-6.48-4.44-11.98-9.34-15.57c-3.74,4.78-5.62,11.02-4.69,17.52C102.58,40.6,105.72,45.77,110.1,49.37"/>
	<path id="XMLID_00000142855252444739199580000009178162714958893230_" class="st0" d="M123.04,91.61
		c-3.11,5.52-3.71,11.84-2.31,17.56c3.42-7.03,8.14-14.95,12.65-21.38c-3.12,7.23-7.03,15.66-11.14,22.18
		c5.61-1.71,10.62-5.62,13.73-11.14c3.31-5.92,3.82-12.64,2.01-18.66C131.87,81.78,126.36,85.69,123.04,91.61"/>
	<path id="XMLID_00000036245179568297164840000014975147527179659414_" class="st0" d="M42.22,100.99
		c-5.87-5.16-12.25-11.82-17.23-17.88c6.13,4.92,13.2,10.94,18.4,16.64C43.24,93.88,40.8,88,36.31,83.54
		c-4.83-4.77-11.17-7.05-17.45-6.91c-0.08,6.33,2.21,12.69,7.04,17.46C30.4,98.55,36.32,100.83,42.22,100.99"/>
	<path id="XMLID_00000102512964736980002390000011679554808500598969_" class="st0" d="M81.59,79.42
		c-2.24-10.58-3.4-23.28-4.13-34.02c2.87,10.44,5.24,22.95,6.59,33.55c4.44-6.75,6.53-15.22,5.01-23.83
		c-1.48-9.2-6.81-16.94-14.01-21.93c-5.18,7.08-7.62,16.13-6.05,25.33C70.43,67.12,75.1,74.49,81.59,79.42"/>
	<path id="XMLID_00000065065430561562773370000007735315231715014020_" class="st0" d="M61.61,59.76
		c-1.64-7.75-2.48-17.05-3.02-24.91c2.11,7.64,3.84,16.8,4.83,24.56c3.25-4.93,4.78-11.14,3.66-17.44
		C66,35.24,62.1,29.56,56.83,25.91c-3.79,5.19-5.58,11.81-4.43,18.54C53.44,50.75,56.86,56.16,61.61,59.76"/>
	<path id="XMLID_00000156565194575079825360000008454179534492284850_" class="st0" d="M41.68,62.2c5.03,1.78,10.38,1.45,14.95-0.58
		c-6.35-1.92-13.51-5.07-19.51-7.85c6.46,1.55,13.89,3.98,19.98,6.39c-2.31-4.39-6.24-8.01-11.31-9.74
		c-5.38-1.94-11.12-1.35-15.93,1.03C32.13,56.33,36.27,60.32,41.68,62.2"/>
	<path id="XMLID_00000006704024242863373510000005730906738379728303_" class="st0" d="M26.21,121.19
		c5.22-1.34,9.52-4.62,12.19-8.88c-6.4,1.95-14.15,3.36-20.73,4.38c6.29-2.34,13.85-4.47,20.31-5.86
		c-4.39-2.38-9.72-3.21-14.93-1.81c-5.59,1.41-10.06,5.11-12.75,9.8C14.93,121.63,20.63,122.65,26.21,121.19"/>
	<path id="XMLID_00000066510200725066701670000018106499614244742556_" class="st0" d="M43.63,115.02
		c-5.33,1.34-9.6,4.87-12.18,9.35c4.43,2.69,9.87,3.66,15.2,2.27c4.98-1.29,9.08-4.41,11.64-8.48c-6.1,1.88-13.5,3.21-19.79,4.19
		c5.99-2.22,13.22-4.26,19.37-5.6C53.69,114.48,48.61,113.68,43.63,115.02"/>
	<path id="XMLID_00000113344167718387509710000006089597071317136513_" class="st0" d="M61.98,123.19
		c-4.81,1.22-8.67,4.4-10.98,8.44c3.99,2.42,8.9,3.29,13.7,2.04c4.49-1.16,8.19-3.97,10.5-7.64c-5.5,1.68-12.18,2.88-17.83,3.76
		c5.39-2.01,11.91-3.84,17.47-5.05C71.05,122.71,66.46,121.98,61.98,123.19"/>
	<path id="XMLID_00000134963580133686958380000013485549514317174699_" class="st0" d="M46.93,85.36
		c8.24,2.85,16.95,2.26,24.38-1.11c-10.38-3.06-22.09-8.1-31.89-12.58c10.55,2.45,22.68,6.32,32.65,10.19
		c-3.82-7.12-10.27-12.99-18.55-15.76c-8.81-3.08-18.14-2.09-25.96,1.86C31.29,75.9,38.09,82.36,46.93,85.36"/>
	<path id="XMLID_00000178201445904219734200000000375301244841768627_" class="st0" d="M190.25,32.95
		C186.23,39.17,181,46,176.09,51.51c5.53-0.8,10.74-3.62,14.45-8.23c4.01-5.02,5.52-11.24,4.81-17.04
		c-5.91,0.49-11.62,3.41-15.65,8.41c-3.7,4.62-5.33,10.34-4.91,15.86C179.1,44.58,185.02,38.16,190.25,32.95"/>
	<path id="XMLID_00000019668763900874836800000015117209267045854375_" class="st0" d="M207,51.38c-3.72,4.62-5.33,10.33-4.92,15.85
		c4.33-5.92,10.24-12.34,15.45-17.55c-4.01,6.22-9.23,13.04-14.14,18.56c5.52-0.81,10.73-3.61,14.44-8.23
		c4.02-5.01,5.51-11.23,4.82-17.05C216.73,43.45,211,46.36,207,51.38"/>
	<path id="XMLID_00000075121108913590000320000007381948363217392278_" class="st0" d="M158.08,62.14
		c0.37,5.72,0.26,12.38-0.26,18.09c3.06-3.05,5.02-7.2,5.22-11.78c0.19-4.98-1.74-9.55-4.85-12.85c-3.47,3.04-5.69,7.49-5.88,12.47
		c-0.18,4.59,1.45,8.89,4.23,12.15C156.5,74.53,157.23,67.8,158.08,62.14"/>
	<path id="XMLID_00000085929994611787759810000014593289165575834018_" class="st0" d="M180.03,60.74
		c-4,6.22-9.23,13.04-14.15,18.56c5.53-0.8,10.74-3.62,14.45-8.23c4.02-5.01,5.52-11.24,4.83-17.06c-5.92,0.5-11.66,3.41-15.66,8.43
		c-3.71,4.62-5.31,10.34-4.92,15.86C168.91,72.37,174.82,65.94,180.03,60.74"/>
	<path id="XMLID_00000081642849893002022390000017961558747196144542_" class="st0" d="M155.81,100.51
		c5.57-4.76,12.82-9.63,19.11-13.5c-5.35,5.13-12.02,10.55-18.08,14.78c5.56,0.48,11.28-1.03,15.97-4.65
		c5.07-3.95,7.98-9.65,8.64-15.48c-5.88-0.89-12.12,0.61-17.17,4.57C159.58,89.85,156.69,95.04,155.81,100.51"/>
	<path id="XMLID_00000014630700220625218760000016230030244527415985_" class="st0" d="M193,101.02c0.79-6.38-1.19-12.46-4.83-17.06
		c-4.78,3.54-8.12,9.01-8.92,15.38c-0.75,5.87,0.87,11.59,4.12,16.08c0.56-7.3,2.25-15.86,3.95-23.05
		c-0.16,7.42-1.02,15.95-2.33,23.22C189.29,112.01,192.27,106.9,193,101.02"/>
	<path id="XMLID_00000158006420995888179350000008475638397232617876_" class="st0" d="M205.67,73.61
		c-3.26,4.68-4.41,10.27-3.67,15.55c3.75-5.97,9-12.53,13.66-17.88c-3.44,6.24-7.99,13.14-12.34,18.76
		c5.23-1.14,10.06-4.19,13.32-8.86c3.51-5.09,4.56-11.15,3.48-16.69C214.48,65.36,209.18,68.53,205.67,73.61"/>
	<path id="XMLID_00000034086484050339774940000017154053547519044500_" class="st0" d="M198.35,111.79
		c3.29-5.26,7.93-11.03,12.03-15.75c-3.03,5.49-7.04,11.56-10.87,16.52c4.6-1,8.86-3.69,11.72-7.81c3.11-4.48,4-9.82,3.06-14.7
		c-4.95,0.78-9.63,3.57-12.73,8.04C198.7,102.22,197.68,107.16,198.35,111.79"/>
	<path id="XMLID_00000183226671611732831950000016448724602167815303_" class="st0" d="M200.1,70.07
		c-0.68-6.38-3.98-11.86-8.59-15.51c-3.85,4.54-5.86,10.62-5.19,17.01c0.62,5.89,3.5,11.09,7.65,14.72
		c-1.09-7.24-1.39-15.97-1.38-23.35c1.55,7.24,2.62,15.77,3.01,23.14C198.98,81.62,200.7,75.96,200.1,70.07"/>
	<path id="XMLID_00000083067788604071537120000014403347212116200853_" class="st0" d="M155.22,108.62
		c-4.69,3.63-7.57,8.81-8.45,14.28c5.57-4.76,12.82-9.64,19.09-13.5c-5.34,5.13-11.99,10.55-18.06,14.78
		c5.56,0.49,11.3-1.03,15.96-4.66c5.07-3.95,7.98-9.65,8.65-15.48C166.53,103.16,160.29,104.66,155.22,108.62"/>
	<path id="XMLID_00000178182143352028991060000005175284656301539970_" class="st0" d="M147.06,130.2
		c-3.72,2.89-6.02,7.01-6.73,11.34c4.43-3.78,10.18-7.65,15.17-10.72c-4.23,4.07-9.52,8.38-14.34,11.74
		c4.41,0.39,8.96-0.82,12.68-3.7c4.02-3.14,6.34-7.66,6.88-12.29C156.04,125.87,151.07,127.06,147.06,130.2"/>
	<path id="XMLID_00000052104921184358618200000014588187008538857865_" class="st0" d="M122.45,9.5
		c-0.04,7.13-0.41,14.32-1.58,21.31c4.08-3.45,6.99-8.45,7.64-14.25c0.64-6.23-1.31-12.15-5.05-16.56
		c-4.54,3.57-7.78,8.87-8.51,15.06c-0.54,5.75,1.04,11.3,4.27,15.62C119.7,23.5,120.99,16.47,122.45,9.5"/>
	<path id="XMLID_00000116919424708613026950000011613786512775677868_" class="st0" d="M98.85,49.43
		c-4.77-7.01-8.68-14.48-12.39-22.03c5.14,6.65,10.02,13.63,14.02,20.96c1.29-6.16,0.34-12.92-3.24-18.8
		c-3.94-6.26-10.06-10.34-16.73-11.73c-1.64,6.63-0.81,13.9,3.03,20.19C87.22,43.76,92.7,47.78,98.85,49.43"/>
	<path id="XMLID_00000152244841262824432360000003758726821713908865_" class="st0" d="M220.45,41.32
		c-1.72-4.08-3.09-9.12-4.18-13.43c1.88,4.01,3.84,8.9,5.15,13.13c1.32-3.07,1.47-6.62,0.26-10.04c-1.35-3.63-4.05-6.37-7.3-7.8
		c-1.57,3.23-1.89,7.03-0.59,10.68C215.03,37.21,217.5,39.84,220.45,41.32"/>
	<path id="XMLID_00000027567282513193328780000012899928025077897894_" class="st0" d="M228.32,49.73
		c0.14,3.87,0.06,8.47-0.32,12.31c2.1-2.03,3.44-4.83,3.62-7.99c0.15-3.38-1.1-6.5-3.21-8.76c-2.38,2.07-3.93,5.02-4.13,8.4
		c-0.13,3.11,0.96,6.08,2.83,8.27C227.11,58.1,227.73,53.57,228.32,49.73"/>
	<path id="XMLID_00000145752094712574367530000015273170344757541767_" class="st0" d="M193.88,52.92c1.09,2.92,3.25,5.22,5.82,6.52
		c-1.5-3.56-2.69-7.97-3.66-11.74c1.67,3.51,3.36,7.79,4.52,11.47c1.14-2.68,1.28-5.78,0.23-8.77c-1.19-3.17-3.54-5.56-6.38-6.81
		C193.03,46.41,192.74,49.73,193.88,52.92"/>
	<path id="XMLID_00000085224769344727077780000004891869657479631748_" class="st0" d="M205.09,49.93
		c-0.79-5.84-0.79-12.8-0.7-18.73c1.03,5.82,1.84,12.79,2.07,18.67c2.77-3.48,4.19-8,3.82-12.82c-0.46-5.13-2.99-9.59-6.66-12.57
		c-3.15,3.62-4.9,8.39-4.5,13.54C199.56,42.74,201.82,47,205.09,49.93"/>
	<path id="XMLID_00000019672329914012901610000002923984341327945118_" class="st0" d="M137.2,241.84
		c9.81-23.22,30.11-50.8,70.29-61.77c0,0-52.06,8.98-69.94,40.19l-0.26-1.35c3.06-33.71,40.73-74.4,40.73-74.4
		c21.39-23.04,23.77-75.74,23.77-75.74s-2.79,32.08-19.44,56.89c-14.97,22.31-40.73,38.12-48.55,65.85
		c0.84-65.83,29.11-111.16,29.11-111.16s-31.04,41.73-36.79,88.46c-0.12-3.43-4.86-22.98-11.05-34.16
		c6.15-15.79-0.28-75.47-0.28-75.47c2.75,38.92-3.75,68.53-3.75,68.53C90.86,94.24,61.97,65.35,61.97,65.35s27.37,32.64,44.93,69.33
		c-30.87-26.96-83.47-33.56-83.47-33.56s62.01,16.35,90.77,50.77c1.75,4.76,3.84,12.63,5.72,21.11c0.53,5.08,2.12,21.47,3.05,41.9
		c-0.54-0.49-1.07-0.77-1.57-0.92c-20.56-26.46-65.97-34.29-65.97-34.29c37.48,10.23,57.65,34.92,68.17,57.03
		c0.13,20.34-1.19,43.19-4.26,60.63h20.67C135.04,276.3,135.96,255.6,137.2,241.84"/>
</g>
</svg>
