<?xml version="1.0" encoding="UTF-8" standalone="no"?>
<!-- Created with Inkscape (http://www.inkscape.org/) -->

<svg
   width="207.18967mm"
   height="82.119682mm"
   viewBox="0 0 207.18967 82.119682"
   version="1.1"
   id="svg1"
   inkscape:export-filename="bitmap.svg"
   inkscape:export-xdpi="96"
   inkscape:export-ydpi="96"
   xmlns:inkscape="http://www.inkscape.org/namespaces/inkscape"
   xmlns:sodipodi="http://sodipodi.sourceforge.net/DTD/sodipodi-0.dtd"
   xmlns="http://www.w3.org/2000/svg"
   xmlns:svg="http://www.w3.org/2000/svg">
  <sodipodi:namedview
     id="namedview1"
     pagecolor="#ffffff"
     bordercolor="#000000"
     borderopacity="0.25"
     inkscape:showpageshadow="2"
     inkscape:pageopacity="0.0"
     inkscape:pagecheckerboard="0"
     inkscape:deskcolor="#d1d1d1"
     inkscape:document-units="mm" />
  <defs
     id="defs1" />
  <g
     inkscape:label="Capa 1"
     inkscape:groupmode="layer"
     id="layer1"
     transform="translate(-1.0824856,-213.12592)">
    <g
       id="logo"
       transform="matrix(2.2235592,0,0,2.2235592,142.64722,213.12)">
      <path
         id="figure_5"
         data-name="figure 5"
         class="cls-2"
         d="m 11.37,18.52 c 0.74,-0.4 1.54,-0.89 2.46,-1.63 l -0.71,-1.01 c -4.52,3.82 -8.93,4.38 -8.93,4.38 -0.03,0.64 2.92,0.28 4.75,-0.48 0.12,0.55 0.32,1.4 0.56,2.1 0.4,1.11 0.6,0.04 0.59,-0.72 -0.01,-0.75 0.38,-0.78 0.8,0 0.42,0.78 0.91,1.19 0.8,-0.67 -0.06,-0.99 -0.2,-1.61 -0.33,-1.97 z M 9.3,17.74 c 0.46,0 0.82,-0.43 0.82,-0.97 0,-0.54 -0.37,-0.97 -0.82,-0.97 -0.45,0 -0.82,0.43 -0.82,0.97 0,0.54 0.37,0.97 0.82,0.97 z"
         style="fill:#b4a269;stroke-width:0px" />
      <path
         id="figure_4"
         data-name="figure 4"
         class="cls-1"
         d="m 18.06,12.34 c 0.72,-1.17 1.2,-2.51 1.43,-3.86 L 18.1,8.09 c -0.2,1.67 -0.96,3.65 -2.85,5.73 -0.7,0.77 -1.42,1.46 -2.13,2.06 l 0.71,1.01 c 0.59,-0.47 1.22,-1.05 1.92,-1.77 0.16,0.36 0.42,0.9 0.76,1.37 0.59,0.81 0.94,0.77 0.82,-0.61 -0.12,-1.38 0.66,-0.5 0.93,-0.17 0.27,0.32 0.94,1.1 0.58,-0.8 -0.21,-1.1 -0.54,-2 -0.78,-2.57 z m -2.53,-0.25 c 0.45,-0.07 0.75,-0.56 0.67,-1.09 -0.08,-0.53 -0.51,-0.9 -0.96,-0.83 -0.45,0.07 -0.75,0.56 -0.67,1.09 0.08,0.53 0.51,0.9 0.96,0.83 z"
         style="fill:#475aa2;stroke-width:0px" />
      <path
         id="figure_3"
         data-name="figure 3"
         class="cls-3"
         d="M 15.61,0.33 C 10.91,-1.16 8.33,2.92 8.33,2.92 8.25,2.89 8.17,2.86 8.1,2.83 c 0.67,0.26 1.18,0.59 1.41,0.76 0.97,-1.32 2.34,-2.13 4.1,-2.18 1.14,-0.03 2.04,0.45 2.65,0.94 -0.4,0.5 -1.2,1.51 -2.01,2.74 -1.16,1.75 -0.88,1.76 0.37,0.88 1.25,-0.88 0.99,-0.34 0.77,0.38 -0.22,0.72 -0.15,1.07 1.32,-0.24 0.53,-0.47 0.91,-0.85 1.17,-1.13 0.22,0.81 0.38,1.88 0.23,3.11 L 19.5,8.48 C 20.09,4.98 18.95,1.39 15.63,0.33 Z m 4.36,0.41 C 19.65,0.41 19.08,0.45 18.7,0.83 18.32,1.2 18.26,1.77 18.58,2.1 18.9,2.43 19.47,2.39 19.85,2.01 20.23,1.64 20.29,1.07 19.97,0.74 Z"
         style="fill:#003764;stroke-width:0px" />
      <path
         id="figure_2"
         data-name="figure 2"
         class="cls-4"
         d="M 8.09,2.83 C 3.27,1.08 0.25,4.52 0.02,7.28 -0.04,7.96 0.01,8.63 0.14,9.27 L 1.27,9 C 1.24,8.85 1.22,8.71 1.2,8.58 1.07,7.43 1.35,6.16 2.23,5.15 2.35,5.5 2.59,6.06 2.99,6.75 3.65,7.89 3.6,7.05 3.66,6.45 3.72,5.85 4.09,6.4 4.46,6.99 4.82,7.56 5.3,7.75 4.67,3.69 c 2.19,-0.51 4.17,1 4.17,1 C 9.03,4.29 9.25,3.92 9.5,3.59 9.27,3.43 8.76,3.09 8.09,2.83 Z M 2.78,2.59 C 3.23,2.53 3.54,2.05 3.47,1.52 3.4,0.99 2.98,0.61 2.53,0.67 2.08,0.73 1.77,1.21 1.84,1.74 1.91,2.27 2.33,2.65 2.78,2.59 Z"
         style="fill:#002333;stroke-width:0px" />
      <path
         id="figure_1"
         data-name="figure 1"
         class="cls-2"
         d="M 8.04,13.83 C 3.44,13.93 1.67,10.85 1.27,9.01 L 0.14,9.28 v 0 c 0.24,1.18 0.78,2.28 1.6,3.17 -0.06,0.42 -0.16,1.15 -0.22,2.03 -0.09,1.39 0.24,1.4 0.65,0.59 0.41,-0.81 0.5,-0.28 0.45,0.49 -0.05,0.76 0.24,1.31 0.92,-0.27 C 3.78,14.73 3.92,14.32 4,14.02 6.53,14.98 8.29,14.48 8.31,13.98 8.24,13.82 8.04,13.84 8.04,13.84 Z m -4.47,-2 C 4,11.91 4.42,11.56 4.52,11.06 4.61,10.55 4.34,10.08 3.91,10 3.48,9.92 3.06,10.27 2.96,10.77 c -0.09,0.51 0.18,0.98 0.61,1.06 z"
         style="fill:#b4a269;stroke-width:0px" />
    </g>
    <g
       id="g7"
       transform="matrix(0.52603563,0,0,0.52603563,1.0772252,232.21395)">
      <path
         class="cls-2"
         d="m 16.38,49.85 c 0.28,-1.52 0.79,-2.33 1.5,-2.33 0.73,0 1.27,0.43 2.42,2.74 l 24.45,50.18 24.06,-50.91 c 0.7,-1.44 1.16,-2.14 1.95,-2.15 0.79,-0.01 1.35,0.87 1.61,2.74 l 8.26,55.02 c 0.81,5.59 1.71,8.19 4.38,8.97 2.58,0.8 4.37,0.88 5.53,0.88 0.8,0 1.42,0.08 1.42,0.62 0,0.71 -1.06,0.98 -2.32,0.98 -2.21,0 -14.5,-0.23 -18.08,-0.49 -2.04,-0.16 -2.58,-0.43 -2.58,-0.97 0,-0.44 0.35,-0.71 0.98,-0.98 0.53,-0.17 0.8,-1.33 0.44,-3.83 L 64.96,71.15 h -0.35 c 0,0 -19.29,40.5 -19.29,40.5 -2.05,4.18 -2.5,4.97 -3.29,4.98 -0.79,0.01 -1.7,-1.76 -3.15,-4.44 C 36.75,108.1 29.69,94.5 28.6,91.99 27.81,90.12 22.41,78.93 19.28,72.27 h -0.33 c 0,0 -4.54,35.43 -4.54,35.43 -0.18,1.6 -0.27,2.77 -0.27,4.18 0,1.7 1.18,2.51 2.7,2.86 1.58,0.35 2.84,0.43 3.74,0.43 0.69,0 1.31,0.18 1.31,0.62 0,0.79 -0.79,0.98 -2.14,0.98 -3.72,0 -7.71,-0.25 -9.33,-0.25 -1.7,0 -5.97,0.29 -8.81,0.29 -0.89,0 -1.6,-0.18 -1.6,-0.97 0,-0.44 0.52,-0.63 1.41,-0.63 0.71,0 1.35,0 2.68,-0.26 2.48,-0.55 3.19,-4.04 3.64,-7.06 l 8.65,-58.06 z"
         id="path1"
         style="fill:#00263a;stroke-width:0px" />
      <path
         class="cls-2"
         d="m 118.58,93.29 c 0.35,0 0.45,-0.19 0.35,-0.46 L 111.5,73.62 c -0.07,-0.27 -0.2,-0.71 -0.37,-0.71 -0.26,0 -0.35,0.44 -0.44,0.71 l -7.52,19.17 c -0.16,0.35 0,0.54 0.27,0.54 l 15.12,-0.04 z m -16.73,4.22 c -0.44,0 -0.52,0.08 -0.71,0.52 l -4.17,10.16 c -0.78,1.87 -1.13,3.74 -1.13,4.66 0,1.33 0.71,2.12 3.12,2.11 h 1.16 c 0.98,0 1.15,0.35 1.16,0.78 0,0.62 -0.44,0.81 -1.25,0.81 -2.57,0 -6.24,-0.25 -8.73,-0.25 -0.78,0 -4.97,0.28 -9.04,0.29 -1,0 -1.47,-0.18 -1.47,-0.81 0,-0.44 0.28,-0.79 0.92,-0.79 0.69,0 1.58,-0.09 2.31,-0.09 3.55,-0.55 4.88,-2.86 6.48,-6.71 l 20.35,-47.68 c 0.88,-2.14 1.5,-3.04 2.29,-3.04 1.18,0 1.53,0.72 2.31,2.41 1.9,4.19 15.06,35.13 20.1,46.61 3.03,6.83 5.27,7.82 6.67,8.09 1.16,0.16 2.07,0.24 2.95,0.24 0.71,0 1.06,0.27 1.06,0.79 0,0.62 -0.43,0.81 -3.38,0.82 -2.77,0 -8.45,0.02 -15.03,-0.15 -1.45,-0.08 -2.33,-0.08 -2.33,-0.62 0,-0.44 0.17,-0.71 0.96,-0.79 0.56,-0.08 1.09,-0.79 0.72,-1.69 l -6.09,-15.22 c -0.19,-0.44 -0.45,-0.52 -0.82,-0.52 l -18.43,0.05 z"
         id="path2"
         style="fill:#00263a;stroke-width:0px" />
      <path
         class="cls-2"
         d="m 161.65,89.42 c 0.02,8.02 0.14,13.8 0.24,15.32 0.1,1.87 0.27,4.53 0.9,5.34 0.98,1.41 4.1,3.02 10.23,3.01 7.11,-0.02 12.39,-1.28 17.1,-5.22 5.05,-4.19 6.64,-10.97 6.62,-18.79 -0.03,-9.62 -3.87,-15.85 -7.34,-18.88 -7.23,-6.38 -15.79,-7.15 -21.91,-7.13 -1.62,0 -4.18,0.2 -4.82,0.55 -0.73,0.25 -0.98,0.61 -0.97,1.5 -0.1,2.6 -0.08,8.79 -0.07,14.78 l 0.03,9.52 z m -10.53,-8.33 c -0.03,-11.5 -0.04,-13.64 -0.11,-16.03 -0.19,-2.58 -0.9,-3.38 -3.4,-4.09 -0.62,-0.19 -1.95,-0.26 -3.11,-0.26 -0.8,0 -1.35,-0.27 -1.35,-0.81 0,-0.54 0.63,-0.71 1.78,-0.71 4.11,-0.01 9.08,0.14 11.32,0.14 2.41,0 8,-0.19 12.73,-0.2 9.79,-0.03 22.98,-0.06 31.54,8.56 3.94,3.9 7.43,10.21 7.45,19.19 0.03,9.54 -4.05,16.77 -8.5,21.12 -3.56,3.58 -11.81,8.95 -26.26,8.99 -2.83,0 -6.22,-0.23 -9.31,-0.41 -3.14,-0.26 -5.99,-0.44 -7.94,-0.44 -0.88,0 -2.58,0.09 -4.45,0.09 -1.87,0.11 -3.81,0.2 -5.43,0.2 -0.99,0 -1.51,-0.27 -1.51,-0.81 0,-0.33 0.27,-0.79 1.25,-0.79 1.16,0 2.04,-0.09 2.76,-0.26 1.6,-0.38 2.05,-1.82 2.3,-4.04 0.33,-3.2 0.32,-9.15 0.3,-16.09 l -0.04,-13.37 z"
         id="path3"
         style="fill:#00263a;stroke-width:0px" />
      <path
         class="cls-2"
         d="m 214.1,80.92 c -0.03,-11.5 -0.04,-13.64 -0.15,-16.03 -0.21,-2.58 -0.92,-3.38 -3.42,-4.09 -0.6,-0.19 -1.93,-0.26 -3.1,-0.26 -0.8,0 -1.33,-0.27 -1.33,-0.81 0,-0.54 0.6,-0.71 1.77,-0.71 4.09,-0.01 9.08,0.14 11.33,0.14 2.47,0 19.85,0.05 21.35,-0.06 1.43,-0.07 2.68,-0.34 3.3,-0.45 0.44,-0.08 0.87,-0.36 1.23,-0.36 0.46,0 0.56,0.35 0.56,0.73 0,0.52 -0.45,1.41 -0.63,4.89 -0.08,0.81 -0.26,4.1 -0.42,4.99 -0.1,0.35 -0.27,1.23 -0.89,1.23 -0.54,0 -0.62,-0.33 -0.63,-0.98 0,-0.54 -0.11,-1.87 -0.53,-2.74 -0.65,-1.35 -1.26,-2.41 -5.18,-2.75 -1.34,-0.18 -10.68,-0.33 -12.29,-0.32 -0.33,0 -0.54,0.27 -0.54,0.71 l 0.05,18.71 c 0,0.44 0.1,0.79 0.54,0.79 1.77,0 11.93,-0.03 13.71,-0.22 1.86,-0.17 3.02,-0.34 3.75,-1.15 0.6,-0.52 0.86,-0.98 1.22,-0.98 0.36,0 0.63,0.35 0.64,0.81 0.01,0.46 -0.17,1.68 -0.62,5.51 -0.18,1.52 -0.35,4.53 -0.35,5.07 0,0.62 -0.07,1.71 -0.8,1.71 -0.52,0 -0.71,-0.27 -0.71,-0.62 -0.09,-0.81 -0.09,-1.79 -0.27,-2.76 -0.45,-1.52 -1.44,-2.68 -4.36,-2.94 -1.44,-0.16 -10.35,-0.33 -12.29,-0.32 -0.36,0 -0.46,0.36 -0.46,0.81 l 0.02,6.05 c 0,2.6 -0.06,9 0.03,11.23 0.22,5.15 2.59,6.29 10.62,6.27 2.04,0 5.34,-0.08 7.4,-0.98 1.93,-0.9 2.83,-2.5 3.35,-5.62 0.17,-0.79 0.37,-1.17 0.88,-1.17 0.63,0 0.72,0.98 0.72,1.79 0,1.68 -0.58,6.86 -1.05,8.38 -0.52,1.96 -1.23,1.96 -4.17,1.97 -5.88,0.02 -10.59,-0.08 -14.44,-0.23 -3.83,-0.09 -6.76,-0.17 -9.06,-0.16 -0.89,0 -2.6,0.09 -4.46,0.1 -1.87,0.11 -3.82,0.2 -5.44,0.2 -0.98,0 -1.51,-0.27 -1.51,-0.81 0,-0.33 0.28,-0.79 1.25,-0.79 1.15,0 2.04,-0.09 2.74,-0.26 1.62,-0.38 2.05,-1.82 2.32,-4.04 0.36,-3.2 0.35,-9.15 0.33,-16.09 l -0.04,-13.37 z"
         id="path4"
         style="fill:#00263a;stroke-width:0px" />
      <path
         class="cls-2"
         d="m 360.24,114.9 c -1.25,-0.54 -1.51,-0.87 -1.51,-2.59 -0.01,-4.08 0.34,-8.79 0.42,-10.04 0,-1.16 0.35,-1.97 0.99,-1.98 0.71,0 0.77,0.72 0.77,1.27 0,0.98 0.28,2.58 0.74,3.91 1.7,5.61 7.59,7.46 12.49,7.45 6.75,-0.02 10.84,-4.31 10.83,-9.65 0,-3.3 -0.83,-6.57 -7.78,-10.64 l -4.54,-2.67 C 363.36,84.54 360.33,79.5 360.31,72.8 c -0.02,-9.25 8.87,-15.24 19.73,-15.27 5.06,-0.01 9.09,0.68 11.15,1.2 0.7,0.16 1.06,0.46 1.06,0.97 0,1.02 -0.27,3.14 -0.26,9.08 0,1.6 -0.33,2.41 -0.95,2.41 -0.55,0 -0.82,-0.43 -0.83,-1.33 0,-0.73 -0.35,-3.03 -2.04,-4.96 -1.17,-1.43 -3.67,-3.57 -8.74,-3.55 -5.62,0.01 -10.68,2.96 -10.66,8.13 0,3.39 1.25,6.04 8.3,9.96 l 3.21,1.76 c 10.35,5.67 13.58,11.46 13.6,18.32 0.01,5.59 -2.11,10.13 -7.81,14.18 -3.75,2.67 -8.9,3.14 -13.09,3.15 -4.53,0.01 -9.34,-0.43 -12.74,-1.94"
         id="path5"
         style="fill:#00263a;stroke-width:0px" />
      <path
         class="cls-2"
         d="m 266.71,86.85 c 0,0.83 0.15,1.14 0.67,1.35 1.6,0.54 3.85,0.74 5.74,0.73 3,0 3.99,-0.3 5.35,-1.28 2.23,-1.67 4.42,-5.12 4.41,-11.3 -0.03,-10.68 -7.11,-13.76 -11.56,-13.75 -1.9,0 -3.23,0.09 -4,0.32 -0.52,0.13 -0.66,0.46 -0.66,1.06 l 0.06,22.87 z m 7.16,5.72 -6.55,-0.15 c -0.37,0 -0.6,0.17 -0.6,0.61 v 1.04 c 0.02,7.03 0.04,12.95 0.42,16.13 0.23,2.16 0.67,3.82 2.95,4.11 1.12,0.16 2.78,0.28 3.69,0.28 0.58,0 0.89,0.23 0.9,0.6 0,0.54 -0.52,0.77 -1.49,0.77 -4.38,0.01 -9.94,-0.2 -11.04,-0.2 -1.45,0 -6.19,0.25 -9.2,0.25 -0.97,0 -1.51,-0.23 -1.51,-0.76 0,-0.37 0.29,-0.6 1.2,-0.61 1.1,0 2.04,-0.13 2.7,-0.3 1.5,-0.3 1.89,-1.96 2.19,-4.12 0.35,-3.18 0.34,-9.11 0.32,-16.05 l -0.03,-13.24 c -0.03,-11.45 -0.04,-13.53 -0.2,-15.96 -0.15,-2.54 -0.77,-3.74 -3.23,-4.27 -0.6,-0.14 -1.89,-0.2 -2.94,-0.2 -0.83,0 -1.27,-0.14 -1.27,-0.68 0,-0.54 0.51,-0.69 1.65,-0.69 3.97,-0.01 8.71,0.21 10.29,0.2 2.58,0 8.29,-0.25 10.6,-0.26 4.75,-0.01 9.78,0.43 13.87,3.19 2.08,1.43 5.12,5.27 5.13,10.32 0.01,5.55 -2.31,10.69 -9.88,16.86 0,0 1.62,0.18 3.92,2.4 2.53,2.4 3.71,6.85 12.3,16.53 12.72,14.37 33.23,-1.63 33.23,-1.63 0,0 0.97,-1.04 1.27,-0.46 0.29,0.56 -6.9,8.91 -18.65,12.52 -15.52,4.72 -26.32,-7.98 -30.64,-15.64 -3.11,-5.5 -5.5,-10.42 -9.4,-10.6"
         id="path6"
         style="fill:#00263a;stroke-width:0px" />
      <path
         class="cls-2"
         d="m 332.28,92.42 c 0.35,0 0.45,-0.25 0.35,-0.48 l -6.81,-18.57 c -0.08,-0.29 -0.16,-0.66 -0.35,-0.66 -0.26,0 -0.38,0.38 -0.49,0.67 l -6.87,18.54 c -0.06,0.29 0,0.54 0.32,0.54 l 13.86,-0.04 z m -26.51,16.66 19.4,-48.78 c 0.9,-2.21 1.36,-3.02 2.09,-3.02 0.69,0 1.14,0.66 1.91,2.41 1.81,4.13 13.95,34.78 18.78,46.2 2.89,6.77 5.05,7.82 6.63,8.19 1.14,0.23 2.29,0.28 3.16,0.28 0.6,0 0.99,0.1 0.99,0.6 0,0.62 -0.67,0.77 -3.48,0.78 -2.81,0.01 -8.17,0.02 -14.2,-0.11 -1.35,-0.08 -2.27,-0.08 -2.27,-0.62 0,-0.44 0.3,-0.6 1.06,-0.67 0.53,-0.15 1.06,-0.81 0.66,-1.73 l -6.05,-15.93 c -0.17,-0.39 -0.4,-0.54 -0.77,-0.54 l -16.75,0.04 c -0.4,0 -0.54,0.15 -0.68,0.6 l -5.41,14.34"
         id="path7"
         style="fill:#00263a;stroke-width:0px" />
    </g>
    <g
       id="g16"
       transform="matrix(0.52603563,0,0,0.52603563,1.0772252,232.21395)">
      <path
         class="cls-1"
         d="m 14.84,3.39 c 2.07,-0.44 5.35,-0.78 8.68,-0.79 4.75,-0.01 7.81,0.8 10.11,2.65 1.92,1.42 3.07,3.6 3.08,6.49 0,3.55 -2.33,6.67 -6.21,8.1 v 0.11 c 3.5,0.86 7.6,3.75 7.62,9.21 0,3.17 -1.24,5.58 -3.09,7.38 -2.56,2.36 -6.71,3.46 -12.72,3.47 -3.28,0 -5.79,-0.2 -7.38,-0.42 L 14.83,3.37 Z m 4.79,15.07 h 4.32 c 5.03,-0.02 7.97,-2.65 7.96,-6.21 -0.01,-4.32 -3.29,-6 -8.1,-5.99 -2.18,0 -3.44,0.17 -4.21,0.34 l 0.03,11.85 z m 0.04,17.64 c 0.93,0.16 2.29,0.21 3.99,0.21 4.92,-0.01 9.45,-1.83 9.43,-7.18 -0.01,-5.03 -4.33,-7.09 -9.52,-7.08 h -3.93 c 0,0 0.04,14.05 0.04,14.05 z"
         id="path8"
         style="fill:#b4a269;stroke-width:0px" />
      <path
         class="cls-1"
         d="m 47.24,27.29 c 0.13,6.5 4.29,9.17 9.09,9.15 3.44,0 5.52,-0.62 7.32,-1.38 l 0.83,3.44 c -1.69,0.77 -4.58,1.65 -8.79,1.66 -8.14,0.02 -13.02,-5.32 -13.04,-13.29 -0.02,-7.98 4.66,-14.27 12.36,-14.29 8.63,-0.02 10.95,7.56 10.96,12.43 0,0.98 -0.1,1.75 -0.16,2.24 L 47.24,27.3 Z m 14.08,-3.48 c 0.05,-3.06 -1.28,-7.81 -6.68,-7.79 -4.86,0.01 -6.98,4.5 -7.35,7.83 l 14.04,-0.04 z"
         id="path9"
         style="fill:#b4a269;stroke-width:0px" />
      <path
         class="cls-1"
         d="m 71.91,20.29 c 0,-2.73 -0.07,-4.97 -0.24,-7.16 h 4.26 c 0,0 0.28,4.36 0.28,4.36 h 0.11 c 1.3,-2.52 4.36,-4.98 8.73,-4.99 3.66,0 9.35,2.16 9.37,11.23 l 0.04,15.79 h -4.81 c 0,0 -0.04,-15.23 -0.04,-15.23 -0.01,-4.26 -1.6,-7.81 -6.14,-7.8 -3.17,0 -5.62,2.25 -6.43,4.93 -0.22,0.6 -0.32,1.42 -0.32,2.24 l 0.04,15.9 h -4.81 c 0,0 -0.05,-19.27 -0.05,-19.27 z"
         id="path10"
         style="fill:#b4a269;stroke-width:0px" />
      <path
         class="cls-1"
         d="m 104.93,27.14 c 0.13,6.5 4.29,9.17 9.09,9.15 3.44,0 5.51,-0.61 7.32,-1.38 l 0.83,3.44 c -1.69,0.77 -4.58,1.65 -8.79,1.66 -8.14,0.02 -13.01,-5.32 -13.04,-13.29 -0.02,-7.98 4.66,-14.27 12.36,-14.29 8.63,-0.02 10.94,7.56 10.96,12.43 0,0.98 -0.1,1.75 -0.16,2.24 l -18.57,0.05 z m 14.08,-3.48 c 0.05,-3.06 -1.28,-7.81 -6.68,-7.79 -4.86,0.01 -6.98,4.5 -7.35,7.83 l 14.04,-0.04 z"
         id="path11"
         style="fill:#b4a269;stroke-width:0px" />
      <path
         class="cls-1"
         d="m 130.14,39.42 -0.06,-22.78 h -3.71 c 0,0 0,-3.65 0,-3.65 h 3.71 c 0,0 0,-1.43 0,-1.43 -0.03,-7 4.06,-11.54 11.48,-11.56 2.46,0 5.36,0.75 6.72,1.73 l -1.36,3.66 c -1.15,-0.82 -3.23,-1.52 -5.58,-1.52 -5.08,0.01 -6.55,3.57 -6.54,7.77 v 1.31 c 0,0 15.35,-0.04 15.35,-0.04 l 0.07,26.44 h -4.75 c 0,0 -0.06,-22.77 -0.06,-22.77 l -10.6,0.03 0.06,22.78 h -4.75 z"
         id="path12"
         style="fill:#b4a269;stroke-width:0px" />
      <path
         class="cls-1"
         d="m 177.06,38.31 c -1.25,0.66 -4.04,1.54 -7.59,1.55 -7.98,0.02 -13.18,-5.37 -13.2,-13.46 -0.02,-8.14 5.53,-14.05 14.17,-14.08 2.84,0 5.36,0.7 6.67,1.35 l -1.08,3.72 c -1.15,-0.65 -2.95,-1.25 -5.58,-1.24 -6.06,0.02 -9.33,4.5 -9.31,10.02 0.02,6.12 3.96,9.88 9.2,9.86 2.73,0 4.53,-0.72 5.9,-1.33 l 0.83,3.6 z"
         id="path13"
         style="fill:#b4a269;stroke-width:0px" />
      <path
         class="cls-1"
         d="m 187.96,5.4 c 0.06,1.64 -1.14,2.95 -3.05,2.96 -1.69,0 -2.9,-1.3 -2.9,-2.94 0,-1.69 1.25,-3.01 3,-3.01 1.8,0 2.95,1.3 2.96,3 z m -5.27,33.88 -0.07,-26.44 h 4.81 c 0,0 0.07,26.43 0.07,26.43 h -4.81 z"
         id="path14"
         style="fill:#b4a269;stroke-width:0px" />
      <path
         class="cls-1"
         d="m 219.37,25.74 c 0.03,9.78 -6.74,14.06 -13.13,14.07 -7.16,0.02 -12.69,-5.21 -12.71,-13.57 -0.02,-8.85 5.75,-14.05 13.07,-14.07 7.59,-0.02 12.74,5.48 12.76,13.57 z m -20.98,0.33 c 0.02,5.79 3.36,10.15 8.06,10.14 4.59,-0.01 8.02,-4.34 8,-10.29 -0.01,-4.48 -2.27,-10.15 -7.95,-10.14 -5.68,0.02 -8.13,5.27 -8.11,10.29 z"
         id="path15"
         style="fill:#b4a269;stroke-width:0px" />
      <path
         class="cls-1"
         d="m 224.8,34.25 c 1.42,0.92 3.94,1.9 6.34,1.9 3.5,0 5.13,-1.76 5.12,-3.95 0,-2.29 -1.38,-3.55 -4.93,-4.85 -4.76,-1.68 -7,-4.3 -7.01,-7.47 -0.01,-4.26 3.42,-7.77 9.1,-7.78 2.68,0 5.03,0.75 6.5,1.62 l -1.19,3.5 c -1.04,-0.65 -2.95,-1.52 -5.41,-1.52 -2.84,0 -4.42,1.65 -4.42,3.62 0,2.19 1.59,3.16 5.04,4.47 4.59,1.74 6.95,4.02 6.96,7.96 0.01,4.64 -3.58,7.93 -9.87,7.95 -2.9,0 -5.57,-0.7 -7.43,-1.78 l 1.19,-3.66 z"
         id="path16"
         style="fill:#b4a269;stroke-width:0px" />
    </g>
  </g>
</svg>
